# xmcd CD database file
#
# Track frame offsets:
#	150
#	21615
#	48289
#	67842
#	90935
#	117087
#	141792
#	165540
#	169684
#	194852
#	218962
#	236525
#
# Disc length: 3456 seconds
#
# Revision: 0
# Processed by: cddbd v1.5.1PL0 Copyright (c) Steve Scherf et al.
# Submitted via: CDex 1.51
#
DISCID=a30d7e0c
DTITLE=THE TRANSFORMER - 感情漂流
DYEAR=1999
DGENRE=Rock
TTITLE0=あるがままに
TTITLE1=錆びた雨
TTITLE2=赤い花
TTITLE3=サディスティック博愛
TTITLE4=空っぽの星
TTITLE5=物憂げなMonday
TTITLE6=クルッタキセツ
TTITLE7=片翼だけの僕
TTITLE8=背徳のメロディ
TTITLE9=Nothing to lose
TTITLE10=感情漂流
TTITLE11=冬の花火
EXTD=YEAR: 1999
EXTT0=
EXTT1=
EXTT2=
EXTT3=
EXTT4=
EXTT5=
EXTT6=
EXTT7=
EXTT8=
EXTT9=
EXTT10=
EXTT11=
PLAYORDER=
